%TF.GenerationSoftware,KiCad,Pcbnew,8.0.7*%
%TF.CreationDate,2025-01-03T21:08:45-07:00*%
%TF.ProjectId,minimal-ffc-i2c_no_R,6d696e69-6d61-46c2-9d66-66632d693263,rev?*%
%TF.SameCoordinates,Original*%
%TF.FileFunction,Legend,Bot*%
%TF.FilePolarity,Positive*%
%FSLAX46Y46*%
G04 Gerber Fmt 4.6, Leading zero omitted, Abs format (unit mm)*
G04 Created by KiCad (PCBNEW 8.0.7) date 2025-01-03 21:08:45*
%MOMM*%
%LPD*%
G01*
G04 APERTURE LIST*
%ADD10C,0.076200*%
G04 APERTURE END LIST*
D10*
X118294107Y-106341677D02*
X118221535Y-106365867D01*
X118221535Y-106365867D02*
X118100583Y-106365867D01*
X118100583Y-106365867D02*
X118052202Y-106341677D01*
X118052202Y-106341677D02*
X118028011Y-106317486D01*
X118028011Y-106317486D02*
X118003821Y-106269105D01*
X118003821Y-106269105D02*
X118003821Y-106220724D01*
X118003821Y-106220724D02*
X118028011Y-106172343D01*
X118028011Y-106172343D02*
X118052202Y-106148153D01*
X118052202Y-106148153D02*
X118100583Y-106123962D01*
X118100583Y-106123962D02*
X118197345Y-106099772D01*
X118197345Y-106099772D02*
X118245726Y-106075581D01*
X118245726Y-106075581D02*
X118269916Y-106051391D01*
X118269916Y-106051391D02*
X118294107Y-106003010D01*
X118294107Y-106003010D02*
X118294107Y-105954629D01*
X118294107Y-105954629D02*
X118269916Y-105906248D01*
X118269916Y-105906248D02*
X118245726Y-105882057D01*
X118245726Y-105882057D02*
X118197345Y-105857867D01*
X118197345Y-105857867D02*
X118076392Y-105857867D01*
X118076392Y-105857867D02*
X118003821Y-105882057D01*
X117786106Y-106365867D02*
X117786106Y-105857867D01*
X117786106Y-105857867D02*
X117665154Y-105857867D01*
X117665154Y-105857867D02*
X117592582Y-105882057D01*
X117592582Y-105882057D02*
X117544201Y-105930438D01*
X117544201Y-105930438D02*
X117520011Y-105978819D01*
X117520011Y-105978819D02*
X117495820Y-106075581D01*
X117495820Y-106075581D02*
X117495820Y-106148153D01*
X117495820Y-106148153D02*
X117520011Y-106244915D01*
X117520011Y-106244915D02*
X117544201Y-106293296D01*
X117544201Y-106293296D02*
X117592582Y-106341677D01*
X117592582Y-106341677D02*
X117665154Y-106365867D01*
X117665154Y-106365867D02*
X117786106Y-106365867D01*
X117302297Y-106220724D02*
X117060392Y-106220724D01*
X117350678Y-106365867D02*
X117181344Y-105857867D01*
X117181344Y-105857867D02*
X117012011Y-106365867D01*
X120834107Y-106341677D02*
X120761535Y-106365867D01*
X120761535Y-106365867D02*
X120640583Y-106365867D01*
X120640583Y-106365867D02*
X120592202Y-106341677D01*
X120592202Y-106341677D02*
X120568011Y-106317486D01*
X120568011Y-106317486D02*
X120543821Y-106269105D01*
X120543821Y-106269105D02*
X120543821Y-106220724D01*
X120543821Y-106220724D02*
X120568011Y-106172343D01*
X120568011Y-106172343D02*
X120592202Y-106148153D01*
X120592202Y-106148153D02*
X120640583Y-106123962D01*
X120640583Y-106123962D02*
X120737345Y-106099772D01*
X120737345Y-106099772D02*
X120785726Y-106075581D01*
X120785726Y-106075581D02*
X120809916Y-106051391D01*
X120809916Y-106051391D02*
X120834107Y-106003010D01*
X120834107Y-106003010D02*
X120834107Y-105954629D01*
X120834107Y-105954629D02*
X120809916Y-105906248D01*
X120809916Y-105906248D02*
X120785726Y-105882057D01*
X120785726Y-105882057D02*
X120737345Y-105857867D01*
X120737345Y-105857867D02*
X120616392Y-105857867D01*
X120616392Y-105857867D02*
X120543821Y-105882057D01*
X120035820Y-106317486D02*
X120060011Y-106341677D01*
X120060011Y-106341677D02*
X120132582Y-106365867D01*
X120132582Y-106365867D02*
X120180963Y-106365867D01*
X120180963Y-106365867D02*
X120253535Y-106341677D01*
X120253535Y-106341677D02*
X120301916Y-106293296D01*
X120301916Y-106293296D02*
X120326106Y-106244915D01*
X120326106Y-106244915D02*
X120350297Y-106148153D01*
X120350297Y-106148153D02*
X120350297Y-106075581D01*
X120350297Y-106075581D02*
X120326106Y-105978819D01*
X120326106Y-105978819D02*
X120301916Y-105930438D01*
X120301916Y-105930438D02*
X120253535Y-105882057D01*
X120253535Y-105882057D02*
X120180963Y-105857867D01*
X120180963Y-105857867D02*
X120132582Y-105857867D01*
X120132582Y-105857867D02*
X120060011Y-105882057D01*
X120060011Y-105882057D02*
X120035820Y-105906248D01*
X119576201Y-106365867D02*
X119818106Y-106365867D01*
X119818106Y-106365867D02*
X119818106Y-105857867D01*
X115802488Y-105857867D02*
X115633154Y-106365867D01*
X115633154Y-106365867D02*
X115463821Y-105857867D01*
X115004201Y-106317486D02*
X115028392Y-106341677D01*
X115028392Y-106341677D02*
X115100963Y-106365867D01*
X115100963Y-106365867D02*
X115149344Y-106365867D01*
X115149344Y-106365867D02*
X115221916Y-106341677D01*
X115221916Y-106341677D02*
X115270297Y-106293296D01*
X115270297Y-106293296D02*
X115294487Y-106244915D01*
X115294487Y-106244915D02*
X115318678Y-106148153D01*
X115318678Y-106148153D02*
X115318678Y-106075581D01*
X115318678Y-106075581D02*
X115294487Y-105978819D01*
X115294487Y-105978819D02*
X115270297Y-105930438D01*
X115270297Y-105930438D02*
X115221916Y-105882057D01*
X115221916Y-105882057D02*
X115149344Y-105857867D01*
X115149344Y-105857867D02*
X115100963Y-105857867D01*
X115100963Y-105857867D02*
X115028392Y-105882057D01*
X115028392Y-105882057D02*
X115004201Y-105906248D01*
X114496201Y-106317486D02*
X114520392Y-106341677D01*
X114520392Y-106341677D02*
X114592963Y-106365867D01*
X114592963Y-106365867D02*
X114641344Y-106365867D01*
X114641344Y-106365867D02*
X114713916Y-106341677D01*
X114713916Y-106341677D02*
X114762297Y-106293296D01*
X114762297Y-106293296D02*
X114786487Y-106244915D01*
X114786487Y-106244915D02*
X114810678Y-106148153D01*
X114810678Y-106148153D02*
X114810678Y-106075581D01*
X114810678Y-106075581D02*
X114786487Y-105978819D01*
X114786487Y-105978819D02*
X114762297Y-105930438D01*
X114762297Y-105930438D02*
X114713916Y-105882057D01*
X114713916Y-105882057D02*
X114641344Y-105857867D01*
X114641344Y-105857867D02*
X114592963Y-105857867D01*
X114592963Y-105857867D02*
X114520392Y-105882057D01*
X114520392Y-105882057D02*
X114496201Y-105906248D01*
X112923821Y-105882057D02*
X112972202Y-105857867D01*
X112972202Y-105857867D02*
X113044773Y-105857867D01*
X113044773Y-105857867D02*
X113117345Y-105882057D01*
X113117345Y-105882057D02*
X113165726Y-105930438D01*
X113165726Y-105930438D02*
X113189916Y-105978819D01*
X113189916Y-105978819D02*
X113214107Y-106075581D01*
X113214107Y-106075581D02*
X113214107Y-106148153D01*
X113214107Y-106148153D02*
X113189916Y-106244915D01*
X113189916Y-106244915D02*
X113165726Y-106293296D01*
X113165726Y-106293296D02*
X113117345Y-106341677D01*
X113117345Y-106341677D02*
X113044773Y-106365867D01*
X113044773Y-106365867D02*
X112996392Y-106365867D01*
X112996392Y-106365867D02*
X112923821Y-106341677D01*
X112923821Y-106341677D02*
X112899630Y-106317486D01*
X112899630Y-106317486D02*
X112899630Y-106148153D01*
X112899630Y-106148153D02*
X112996392Y-106148153D01*
X112681916Y-106365867D02*
X112681916Y-105857867D01*
X112681916Y-105857867D02*
X112391630Y-106365867D01*
X112391630Y-106365867D02*
X112391630Y-105857867D01*
X112149726Y-106365867D02*
X112149726Y-105857867D01*
X112149726Y-105857867D02*
X112028774Y-105857867D01*
X112028774Y-105857867D02*
X111956202Y-105882057D01*
X111956202Y-105882057D02*
X111907821Y-105930438D01*
X111907821Y-105930438D02*
X111883631Y-105978819D01*
X111883631Y-105978819D02*
X111859440Y-106075581D01*
X111859440Y-106075581D02*
X111859440Y-106148153D01*
X111859440Y-106148153D02*
X111883631Y-106244915D01*
X111883631Y-106244915D02*
X111907821Y-106293296D01*
X111907821Y-106293296D02*
X111956202Y-106341677D01*
X111956202Y-106341677D02*
X112028774Y-106365867D01*
X112028774Y-106365867D02*
X112149726Y-106365867D01*
X110395916Y-106365867D02*
X110395916Y-105857867D01*
X110395916Y-105857867D02*
X110274964Y-105857867D01*
X110274964Y-105857867D02*
X110202392Y-105882057D01*
X110202392Y-105882057D02*
X110154011Y-105930438D01*
X110154011Y-105930438D02*
X110129821Y-105978819D01*
X110129821Y-105978819D02*
X110105630Y-106075581D01*
X110105630Y-106075581D02*
X110105630Y-106148153D01*
X110105630Y-106148153D02*
X110129821Y-106244915D01*
X110129821Y-106244915D02*
X110154011Y-106293296D01*
X110154011Y-106293296D02*
X110202392Y-106341677D01*
X110202392Y-106341677D02*
X110274964Y-106365867D01*
X110274964Y-106365867D02*
X110395916Y-106365867D01*
X109597630Y-106365867D02*
X109766964Y-106123962D01*
X109887916Y-106365867D02*
X109887916Y-105857867D01*
X109887916Y-105857867D02*
X109694392Y-105857867D01*
X109694392Y-105857867D02*
X109646011Y-105882057D01*
X109646011Y-105882057D02*
X109621821Y-105906248D01*
X109621821Y-105906248D02*
X109597630Y-105954629D01*
X109597630Y-105954629D02*
X109597630Y-106027200D01*
X109597630Y-106027200D02*
X109621821Y-106075581D01*
X109621821Y-106075581D02*
X109646011Y-106099772D01*
X109646011Y-106099772D02*
X109694392Y-106123962D01*
X109694392Y-106123962D02*
X109887916Y-106123962D01*
M02*
