%TF.GenerationSoftware,KiCad,Pcbnew,8.0.7*%
%TF.CreationDate,2025-01-03T17:26:32-07:00*%
%TF.ProjectId,minimal-ffc-i2c,6d696e69-6d61-46c2-9d66-66632d693263,rev?*%
%TF.SameCoordinates,Original*%
%TF.FileFunction,Legend,Top*%
%TF.FilePolarity,Positive*%
%FSLAX46Y46*%
G04 Gerber Fmt 4.6, Leading zero omitted, Abs format (unit mm)*
G04 Created by KiCad (PCBNEW 8.0.7) date 2025-01-03 17:26:32*
%MOMM*%
%LPD*%
G01*
G04 APERTURE LIST*
%ADD10C,0.125000*%
%ADD11C,0.120000*%
%ADD12C,0.254000*%
G04 APERTURE END LIST*
D10*
X114601283Y-96982309D02*
X114601283Y-96482309D01*
X114601283Y-96482309D02*
X114720331Y-96482309D01*
X114720331Y-96482309D02*
X114791759Y-96506119D01*
X114791759Y-96506119D02*
X114839378Y-96553738D01*
X114839378Y-96553738D02*
X114863188Y-96601357D01*
X114863188Y-96601357D02*
X114886997Y-96696595D01*
X114886997Y-96696595D02*
X114886997Y-96768023D01*
X114886997Y-96768023D02*
X114863188Y-96863261D01*
X114863188Y-96863261D02*
X114839378Y-96910880D01*
X114839378Y-96910880D02*
X114791759Y-96958500D01*
X114791759Y-96958500D02*
X114720331Y-96982309D01*
X114720331Y-96982309D02*
X114601283Y-96982309D01*
X115386997Y-96982309D02*
X115220331Y-96744214D01*
X115101283Y-96982309D02*
X115101283Y-96482309D01*
X115101283Y-96482309D02*
X115291759Y-96482309D01*
X115291759Y-96482309D02*
X115339378Y-96506119D01*
X115339378Y-96506119D02*
X115363188Y-96529928D01*
X115363188Y-96529928D02*
X115386997Y-96577547D01*
X115386997Y-96577547D02*
X115386997Y-96648976D01*
X115386997Y-96648976D02*
X115363188Y-96696595D01*
X115363188Y-96696595D02*
X115339378Y-96720404D01*
X115339378Y-96720404D02*
X115291759Y-96744214D01*
X115291759Y-96744214D02*
X115101283Y-96744214D01*
X112363188Y-96506119D02*
X112315569Y-96482309D01*
X112315569Y-96482309D02*
X112244140Y-96482309D01*
X112244140Y-96482309D02*
X112172712Y-96506119D01*
X112172712Y-96506119D02*
X112125093Y-96553738D01*
X112125093Y-96553738D02*
X112101283Y-96601357D01*
X112101283Y-96601357D02*
X112077474Y-96696595D01*
X112077474Y-96696595D02*
X112077474Y-96768023D01*
X112077474Y-96768023D02*
X112101283Y-96863261D01*
X112101283Y-96863261D02*
X112125093Y-96910880D01*
X112125093Y-96910880D02*
X112172712Y-96958500D01*
X112172712Y-96958500D02*
X112244140Y-96982309D01*
X112244140Y-96982309D02*
X112291759Y-96982309D01*
X112291759Y-96982309D02*
X112363188Y-96958500D01*
X112363188Y-96958500D02*
X112386997Y-96934690D01*
X112386997Y-96934690D02*
X112386997Y-96768023D01*
X112386997Y-96768023D02*
X112291759Y-96768023D01*
X112601283Y-96982309D02*
X112601283Y-96482309D01*
X112601283Y-96482309D02*
X112886997Y-96982309D01*
X112886997Y-96982309D02*
X112886997Y-96482309D01*
X113125093Y-96982309D02*
X113125093Y-96482309D01*
X113125093Y-96482309D02*
X113244141Y-96482309D01*
X113244141Y-96482309D02*
X113315569Y-96506119D01*
X113315569Y-96506119D02*
X113363188Y-96553738D01*
X113363188Y-96553738D02*
X113386998Y-96601357D01*
X113386998Y-96601357D02*
X113410807Y-96696595D01*
X113410807Y-96696595D02*
X113410807Y-96768023D01*
X113410807Y-96768023D02*
X113386998Y-96863261D01*
X113386998Y-96863261D02*
X113363188Y-96910880D01*
X113363188Y-96910880D02*
X113315569Y-96958500D01*
X113315569Y-96958500D02*
X113244141Y-96982309D01*
X113244141Y-96982309D02*
X113125093Y-96982309D01*
X109529855Y-96482309D02*
X109696521Y-96982309D01*
X109696521Y-96982309D02*
X109863188Y-96482309D01*
X110315568Y-96934690D02*
X110291759Y-96958500D01*
X110291759Y-96958500D02*
X110220330Y-96982309D01*
X110220330Y-96982309D02*
X110172711Y-96982309D01*
X110172711Y-96982309D02*
X110101283Y-96958500D01*
X110101283Y-96958500D02*
X110053664Y-96910880D01*
X110053664Y-96910880D02*
X110029854Y-96863261D01*
X110029854Y-96863261D02*
X110006045Y-96768023D01*
X110006045Y-96768023D02*
X110006045Y-96696595D01*
X110006045Y-96696595D02*
X110029854Y-96601357D01*
X110029854Y-96601357D02*
X110053664Y-96553738D01*
X110053664Y-96553738D02*
X110101283Y-96506119D01*
X110101283Y-96506119D02*
X110172711Y-96482309D01*
X110172711Y-96482309D02*
X110220330Y-96482309D01*
X110220330Y-96482309D02*
X110291759Y-96506119D01*
X110291759Y-96506119D02*
X110315568Y-96529928D01*
X110815568Y-96934690D02*
X110791759Y-96958500D01*
X110791759Y-96958500D02*
X110720330Y-96982309D01*
X110720330Y-96982309D02*
X110672711Y-96982309D01*
X110672711Y-96982309D02*
X110601283Y-96958500D01*
X110601283Y-96958500D02*
X110553664Y-96910880D01*
X110553664Y-96910880D02*
X110529854Y-96863261D01*
X110529854Y-96863261D02*
X110506045Y-96768023D01*
X110506045Y-96768023D02*
X110506045Y-96696595D01*
X110506045Y-96696595D02*
X110529854Y-96601357D01*
X110529854Y-96601357D02*
X110553664Y-96553738D01*
X110553664Y-96553738D02*
X110601283Y-96506119D01*
X110601283Y-96506119D02*
X110672711Y-96482309D01*
X110672711Y-96482309D02*
X110720330Y-96482309D01*
X110720330Y-96482309D02*
X110791759Y-96506119D01*
X110791759Y-96506119D02*
X110815568Y-96529928D01*
X106577474Y-96958500D02*
X106648902Y-96982309D01*
X106648902Y-96982309D02*
X106767950Y-96982309D01*
X106767950Y-96982309D02*
X106815569Y-96958500D01*
X106815569Y-96958500D02*
X106839378Y-96934690D01*
X106839378Y-96934690D02*
X106863188Y-96887071D01*
X106863188Y-96887071D02*
X106863188Y-96839452D01*
X106863188Y-96839452D02*
X106839378Y-96791833D01*
X106839378Y-96791833D02*
X106815569Y-96768023D01*
X106815569Y-96768023D02*
X106767950Y-96744214D01*
X106767950Y-96744214D02*
X106672712Y-96720404D01*
X106672712Y-96720404D02*
X106625093Y-96696595D01*
X106625093Y-96696595D02*
X106601283Y-96672785D01*
X106601283Y-96672785D02*
X106577474Y-96625166D01*
X106577474Y-96625166D02*
X106577474Y-96577547D01*
X106577474Y-96577547D02*
X106601283Y-96529928D01*
X106601283Y-96529928D02*
X106625093Y-96506119D01*
X106625093Y-96506119D02*
X106672712Y-96482309D01*
X106672712Y-96482309D02*
X106791759Y-96482309D01*
X106791759Y-96482309D02*
X106863188Y-96506119D01*
X107077473Y-96982309D02*
X107077473Y-96482309D01*
X107077473Y-96482309D02*
X107196521Y-96482309D01*
X107196521Y-96482309D02*
X107267949Y-96506119D01*
X107267949Y-96506119D02*
X107315568Y-96553738D01*
X107315568Y-96553738D02*
X107339378Y-96601357D01*
X107339378Y-96601357D02*
X107363187Y-96696595D01*
X107363187Y-96696595D02*
X107363187Y-96768023D01*
X107363187Y-96768023D02*
X107339378Y-96863261D01*
X107339378Y-96863261D02*
X107315568Y-96910880D01*
X107315568Y-96910880D02*
X107267949Y-96958500D01*
X107267949Y-96958500D02*
X107196521Y-96982309D01*
X107196521Y-96982309D02*
X107077473Y-96982309D01*
X107553664Y-96839452D02*
X107791759Y-96839452D01*
X107506045Y-96982309D02*
X107672711Y-96482309D01*
X107672711Y-96482309D02*
X107839378Y-96982309D01*
X104077474Y-96958500D02*
X104148902Y-96982309D01*
X104148902Y-96982309D02*
X104267950Y-96982309D01*
X104267950Y-96982309D02*
X104315569Y-96958500D01*
X104315569Y-96958500D02*
X104339378Y-96934690D01*
X104339378Y-96934690D02*
X104363188Y-96887071D01*
X104363188Y-96887071D02*
X104363188Y-96839452D01*
X104363188Y-96839452D02*
X104339378Y-96791833D01*
X104339378Y-96791833D02*
X104315569Y-96768023D01*
X104315569Y-96768023D02*
X104267950Y-96744214D01*
X104267950Y-96744214D02*
X104172712Y-96720404D01*
X104172712Y-96720404D02*
X104125093Y-96696595D01*
X104125093Y-96696595D02*
X104101283Y-96672785D01*
X104101283Y-96672785D02*
X104077474Y-96625166D01*
X104077474Y-96625166D02*
X104077474Y-96577547D01*
X104077474Y-96577547D02*
X104101283Y-96529928D01*
X104101283Y-96529928D02*
X104125093Y-96506119D01*
X104125093Y-96506119D02*
X104172712Y-96482309D01*
X104172712Y-96482309D02*
X104291759Y-96482309D01*
X104291759Y-96482309D02*
X104363188Y-96506119D01*
X104863187Y-96934690D02*
X104839378Y-96958500D01*
X104839378Y-96958500D02*
X104767949Y-96982309D01*
X104767949Y-96982309D02*
X104720330Y-96982309D01*
X104720330Y-96982309D02*
X104648902Y-96958500D01*
X104648902Y-96958500D02*
X104601283Y-96910880D01*
X104601283Y-96910880D02*
X104577473Y-96863261D01*
X104577473Y-96863261D02*
X104553664Y-96768023D01*
X104553664Y-96768023D02*
X104553664Y-96696595D01*
X104553664Y-96696595D02*
X104577473Y-96601357D01*
X104577473Y-96601357D02*
X104601283Y-96553738D01*
X104601283Y-96553738D02*
X104648902Y-96506119D01*
X104648902Y-96506119D02*
X104720330Y-96482309D01*
X104720330Y-96482309D02*
X104767949Y-96482309D01*
X104767949Y-96482309D02*
X104839378Y-96506119D01*
X104839378Y-96506119D02*
X104863187Y-96529928D01*
X105315568Y-96982309D02*
X105077473Y-96982309D01*
X105077473Y-96982309D02*
X105077473Y-96482309D01*
X108316666Y-92774809D02*
X108150000Y-92536714D01*
X108030952Y-92774809D02*
X108030952Y-92274809D01*
X108030952Y-92274809D02*
X108221428Y-92274809D01*
X108221428Y-92274809D02*
X108269047Y-92298619D01*
X108269047Y-92298619D02*
X108292857Y-92322428D01*
X108292857Y-92322428D02*
X108316666Y-92370047D01*
X108316666Y-92370047D02*
X108316666Y-92441476D01*
X108316666Y-92441476D02*
X108292857Y-92489095D01*
X108292857Y-92489095D02*
X108269047Y-92512904D01*
X108269047Y-92512904D02*
X108221428Y-92536714D01*
X108221428Y-92536714D02*
X108030952Y-92536714D01*
X108792857Y-92774809D02*
X108507143Y-92774809D01*
X108650000Y-92774809D02*
X108650000Y-92274809D01*
X108650000Y-92274809D02*
X108602381Y-92346238D01*
X108602381Y-92346238D02*
X108554762Y-92393857D01*
X108554762Y-92393857D02*
X108507143Y-92417666D01*
X112816666Y-92774809D02*
X112650000Y-92536714D01*
X112530952Y-92774809D02*
X112530952Y-92274809D01*
X112530952Y-92274809D02*
X112721428Y-92274809D01*
X112721428Y-92274809D02*
X112769047Y-92298619D01*
X112769047Y-92298619D02*
X112792857Y-92322428D01*
X112792857Y-92322428D02*
X112816666Y-92370047D01*
X112816666Y-92370047D02*
X112816666Y-92441476D01*
X112816666Y-92441476D02*
X112792857Y-92489095D01*
X112792857Y-92489095D02*
X112769047Y-92512904D01*
X112769047Y-92512904D02*
X112721428Y-92536714D01*
X112721428Y-92536714D02*
X112530952Y-92536714D01*
X113007143Y-92322428D02*
X113030952Y-92298619D01*
X113030952Y-92298619D02*
X113078571Y-92274809D01*
X113078571Y-92274809D02*
X113197619Y-92274809D01*
X113197619Y-92274809D02*
X113245238Y-92298619D01*
X113245238Y-92298619D02*
X113269047Y-92322428D01*
X113269047Y-92322428D02*
X113292857Y-92370047D01*
X113292857Y-92370047D02*
X113292857Y-92417666D01*
X113292857Y-92417666D02*
X113269047Y-92489095D01*
X113269047Y-92489095D02*
X112983333Y-92774809D01*
X112983333Y-92774809D02*
X113292857Y-92774809D01*
D11*
%TO.C,R1*%
X108172936Y-93315000D02*
X108627064Y-93315000D01*
X108172936Y-94785000D02*
X108627064Y-94785000D01*
%TO.C,R2*%
X112672936Y-93315000D02*
X113127064Y-93315000D01*
X112672936Y-94785000D02*
X113127064Y-94785000D01*
D12*
%TO.C,J2*%
X104400000Y-84441000D02*
X104400000Y-86824000D01*
X104400000Y-84441000D02*
X115400000Y-84441000D01*
X104400000Y-89275000D02*
X104400000Y-90936000D01*
X104400000Y-90936000D02*
X106769000Y-90936000D01*
X115400000Y-84441000D02*
X115400000Y-86824000D01*
X115400000Y-89275000D02*
X115400000Y-90936000D01*
X115400000Y-90936000D02*
X113031000Y-90936000D01*
X113456000Y-91444000D02*
G75*
G02*
X113202000Y-91444000I-127000J0D01*
G01*
X113202000Y-91444000D02*
G75*
G02*
X113456000Y-91444000I127000J0D01*
G01*
%TD*%
M02*
