%TF.GenerationSoftware,KiCad,Pcbnew,8.0.7*%
%TF.CreationDate,2025-01-03T17:26:32-07:00*%
%TF.ProjectId,minimal-ffc-i2c,6d696e69-6d61-46c2-9d66-66632d693263,rev?*%
%TF.SameCoordinates,Original*%
%TF.FileFunction,Copper,L1,Top*%
%TF.FilePolarity,Positive*%
%FSLAX46Y46*%
G04 Gerber Fmt 4.6, Leading zero omitted, Abs format (unit mm)*
G04 Created by KiCad (PCBNEW 8.0.7) date 2025-01-03 17:26:32*
%MOMM*%
%LPD*%
G01*
G04 APERTURE LIST*
G04 Aperture macros list*
%AMRoundRect*
0 Rectangle with rounded corners*
0 $1 Rounding radius*
0 $2 $3 $4 $5 $6 $7 $8 $9 X,Y pos of 4 corners*
0 Add a 4 corners polygon primitive as box body*
4,1,4,$2,$3,$4,$5,$6,$7,$8,$9,$2,$3,0*
0 Add four circle primitives for the rounded corners*
1,1,$1+$1,$2,$3*
1,1,$1+$1,$4,$5*
1,1,$1+$1,$6,$7*
1,1,$1+$1,$8,$9*
0 Add four rect primitives between the rounded corners*
20,1,$1+$1,$2,$3,$4,$5,0*
20,1,$1+$1,$4,$5,$6,$7,0*
20,1,$1+$1,$6,$7,$8,$9,0*
20,1,$1+$1,$8,$9,$2,$3,0*%
G04 Aperture macros list end*
%TA.AperFunction,SMDPad,CuDef*%
%ADD10RoundRect,0.250000X-0.350000X-0.450000X0.350000X-0.450000X0.350000X0.450000X-0.350000X0.450000X0*%
%TD*%
%TA.AperFunction,SMDPad,CuDef*%
%ADD11R,0.280000X1.250000*%
%TD*%
%TA.AperFunction,SMDPad,CuDef*%
%ADD12R,1.800000X2.000000*%
%TD*%
%TA.AperFunction,ComponentPad*%
%ADD13O,1.700000X1.700000*%
%TD*%
%TA.AperFunction,ComponentPad*%
%ADD14R,1.700000X1.700000*%
%TD*%
%TA.AperFunction,ViaPad*%
%ADD15C,0.300000*%
%TD*%
%TA.AperFunction,Conductor*%
%ADD16C,0.250000*%
%TD*%
G04 APERTURE END LIST*
D10*
%TO.P,R1,1*%
%TO.N,SCL*%
X107400000Y-94050000D03*
%TO.P,R1,2*%
%TO.N,vcc*%
X109400000Y-94050000D03*
%TD*%
%TO.P,R2,1*%
%TO.N,SDA*%
X111900000Y-94050000D03*
%TO.P,R2,2*%
%TO.N,vcc*%
X113900000Y-94050000D03*
%TD*%
D11*
%TO.P,J2,1,Pin_1*%
%TO.N,vcc*%
X112650000Y-90774000D03*
%TO.P,J2,2,Pin_2*%
%TO.N,gnd*%
X112150000Y-90774000D03*
%TO.P,J2,3,Pin_3*%
%TO.N,SDA*%
X111650000Y-90774000D03*
%TO.P,J2,4,Pin_4*%
%TO.N,SCL*%
X111150000Y-90774000D03*
%TO.P,J2,5,Pin_5*%
%TO.N,unconnected-(J2-Pin_5-Pad5)*%
X110650000Y-90774000D03*
%TO.P,J2,6,Pin_6*%
%TO.N,unconnected-(J2-Pin_6-Pad6)*%
X110150000Y-90774000D03*
%TO.P,J2,7,Pin_7*%
%TO.N,unconnected-(J2-Pin_7-Pad7)*%
X109650000Y-90774000D03*
%TO.P,J2,8,Pin_8*%
%TO.N,unconnected-(J2-Pin_8-Pad8)*%
X109150000Y-90774000D03*
%TO.P,J2,9,Pin_9*%
%TO.N,DR*%
X108650000Y-90774000D03*
%TO.P,J2,10,Pin_10*%
%TO.N,unconnected-(J2-Pin_10-Pad10)*%
X108150000Y-90774000D03*
%TO.P,J2,11,Pin_11*%
%TO.N,unconnected-(J2-Pin_11-Pad11)*%
X107650000Y-90774000D03*
%TO.P,J2,12,Pin_12*%
%TO.N,unconnected-(J2-Pin_12-Pad12)*%
X107150000Y-90774000D03*
D12*
%TO.P,J2,13*%
%TO.N,N/C*%
X105350000Y-88050000D03*
%TO.P,J2,14*%
X114450000Y-88050000D03*
%TD*%
D13*
%TO.P,J3,5,Pin_5*%
%TO.N,SCL*%
X104860000Y-98050000D03*
%TO.P,J3,4,Pin_4*%
%TO.N,SDA*%
X107400000Y-98050000D03*
%TO.P,J3,3,Pin_3*%
%TO.N,vcc*%
X109940000Y-98050000D03*
%TO.P,J3,2,Pin_2*%
%TO.N,gnd*%
X112480000Y-98050000D03*
D14*
%TO.P,J3,1,Pin_1*%
%TO.N,DR*%
X115020000Y-98050000D03*
%TD*%
D15*
%TO.N,gnd*%
X112150000Y-91550000D03*
%TO.N,vcc*%
X110650000Y-94300000D03*
X111400000Y-96050000D03*
%TD*%
D16*
%TO.N,gnd*%
X112150000Y-91550000D02*
X112150000Y-90774000D01*
%TO.N,vcc*%
X110900000Y-96050000D02*
X109940000Y-97010000D01*
X110400000Y-94050000D02*
X109400000Y-94050000D01*
X109940000Y-97010000D02*
X109940000Y-98050000D01*
X113900000Y-93050000D02*
X113900000Y-94050000D01*
X112650000Y-91800000D02*
X113900000Y-93050000D01*
X111400000Y-96050000D02*
X110900000Y-96050000D01*
X111900000Y-96050000D02*
X111400000Y-96050000D01*
X110650000Y-94300000D02*
X110400000Y-94050000D01*
X112650000Y-90774000D02*
X112650000Y-91800000D01*
X113900000Y-94050000D02*
X111900000Y-96050000D01*
%TO.N,DR*%
X104400000Y-92050000D02*
X103400000Y-93050000D01*
X108650000Y-90774000D02*
X108650000Y-91689000D01*
X103400000Y-93050000D02*
X103400000Y-99050000D01*
X103900000Y-99550000D02*
X113900000Y-99550000D01*
X114400000Y-98670000D02*
X115020000Y-98050000D01*
X108650000Y-91689000D02*
X108289000Y-92050000D01*
X103400000Y-99050000D02*
X103900000Y-99550000D01*
X108289000Y-92050000D02*
X104400000Y-92050000D01*
X113900000Y-99550000D02*
X114400000Y-99050000D01*
X114400000Y-99050000D02*
X114400000Y-98670000D01*
%TO.N,SDA*%
X111900000Y-95050000D02*
X111400000Y-95550000D01*
X107900000Y-97050000D02*
X107900000Y-98050000D01*
X109400000Y-95550000D02*
X107900000Y-97050000D01*
X111650000Y-93800000D02*
X111900000Y-94050000D01*
X111400000Y-95550000D02*
X109400000Y-95550000D01*
X111900000Y-94050000D02*
X111900000Y-95050000D01*
X111650000Y-90774000D02*
X111650000Y-93800000D01*
%TO.N,SCL*%
X107400000Y-94050000D02*
X106400000Y-94050000D01*
X111150000Y-91689000D02*
X110289000Y-92550000D01*
X111150000Y-90774000D02*
X111150000Y-91689000D01*
X110289000Y-92550000D02*
X108900000Y-92550000D01*
X106400000Y-94050000D02*
X104900000Y-95550000D01*
X104900000Y-95550000D02*
X104900000Y-98010000D01*
X108900000Y-92550000D02*
X107400000Y-94050000D01*
X104900000Y-98010000D02*
X104860000Y-98050000D01*
%TD*%
M02*
